# Blender v2.72 (sub 0) OBJ File: 'axes_id.blend'
# www.blender.org
o Cube
v 1.000000 -1.000000 1.000000
v -1.000000 -1.000000 1.000000
v -1.000000 -1.000000 -1.000000
v 1.000000 -1.000000 -1.000000
v 0.999999 2.414454 1.000000
v -1.000001 2.414454 0.999999
v -1.000000 2.414454 -1.000000
v 1.000000 2.414454 -1.000000
v 1.175968 2.620142 1.175969
v -1.175969 2.620142 1.175968
v -1.175968 2.620142 -1.175969
v 1.175969 2.620142 -1.175968
v 1.000000 -2.139136 1.000000
v -1.000000 -2.139136 1.000000
v -1.000000 -2.139136 -1.000000
v 1.000000 -2.139136 -1.000000
v 2.183930 -1.335867 0.410313
v 2.183930 -1.335867 -0.410312
v 2.183930 -1.803269 0.410313
v 2.183930 -1.803269 -0.410312
v 1.000000 -2.994794 1.000000
v -1.000000 -2.994794 1.000000
v -1.000000 -2.994794 -1.000000
v 1.000000 -2.994794 -1.000000
v -0.374337 -2.406813 -0.993372
v 0.374337 -2.406813 -0.993372
v -0.374337 -2.727118 -0.993372
v 0.374337 -2.727118 -0.993372
v 0.394391 -2.398233 2.058926
v -0.394391 -2.398233 2.058926
v 0.394391 -2.735697 2.058926
v -0.394391 -2.735697 2.058926
vt 0.672532 0.666781
vt 0.672532 0.556641
vt 0.882233 0.558031
vt 0.858795 0.734634
vt 0.805266 0.848503
vt 0.693562 0.847762
vt 0.697236 0.340517
vt 0.367135 0.335853
vt 0.369827 0.046872
vt 0.109279 0.330680
vt 0.109582 0.001065
vt 0.320177 0.001259
vt 0.684560 0.336350
vt 0.684605 0.029402
vt 1.014736 0.027955
vt 0.376884 0.356243
vt 0.376829 0.661871
vt -0.030149 0.661799
vt 0.631282 0.402970
vt 0.631282 0.661965
vt 0.351238 0.658813
vt 0.958697 0.522183
vt 0.909490 0.637034
vt 0.797309 0.637034
vt 0.655960 0.830541
vt 0.705168 0.715690
vt 0.817348 0.715690
vt 0.870804 0.563088
vt 0.661103 0.564478
vt 0.705570 0.449959
vt 0.639975 0.747869
vt 0.616750 0.814141
vt 0.583125 0.814141
vt 0.964557 0.932802
vt 0.753961 0.932802
vt 0.753961 0.822836
vt 0.864228 0.834831
vt 0.734375 0.798748
vt 0.734375 0.753556
vt 0.627900 0.728597
vt 0.837601 0.727207
vt 0.837601 0.837347
vt 0.896777 0.821366
vt 0.847787 0.821366
vt 0.847787 0.741781
vt 0.940110 0.873812
vt 0.810257 0.844947
vt 0.810257 0.799755
vt 0.686033 0.934116
vt 0.558594 0.880203
vt 0.558594 0.801286
vt 0.716165 0.872869
vt 0.716165 0.680534
vt 0.843605 0.740039
vt 0.337249 0.686030
vt 0.337249 0.973762
vt 0.023597 0.970232
vt 0.753961 0.740234
vt 0.964557 0.740234
vt 0.699546 0.871291
vt 0.609861 0.871291
vt 0.609861 0.677328
vt 0.616185 0.886440
vt 0.684967 0.802810
vt 0.684967 0.771889
vt 0.888769 0.831728
vt 0.820529 0.897343
vt 0.742045 0.896460
vt 0.847787 0.934898
vt 0.775718 0.876117
vt 0.943069 0.780706
vt 0.943069 0.863438
vt 0.733369 0.864828
vt 0.964557 0.822836
vt 0.023597 0.682500
vt 0.627900 0.838737
vt 0.882233 0.668171
vt 0.649095 0.733244
vt 0.699929 0.051535
vt 0.319874 0.330874
vt 1.014692 0.334903
vt -0.030094 0.356170
vt 0.351237 0.399818
vt 0.748102 0.522183
vt 0.866556 0.830541
vt 0.817274 0.449219
vt 0.550150 0.747869
vt 0.864228 0.724691
vt 0.896777 0.741781
vt 0.940110 0.763672
vt 0.686033 0.741781
vt 0.843605 0.818956
vt 0.699546 0.677328
vt 0.582559 0.886440
vt 0.679108 0.829369
vt 0.775717 0.803826
vt 0.733369 0.782097
vn 0.000000 0.000000 -1.000000
vn 0.000000 -0.650100 -0.759900
vn -0.000000 -0.000000 1.000000
vn -1.000000 -0.000000 -0.000000
vn 1.000000 0.000000 0.000000
vn 0.000000 1.000000 -0.000000
vn -0.759900 -0.650100 -0.000000
vn 0.759900 -0.650100 0.000000
vn -0.000000 -0.650100 0.759900
vn -0.010600 0.000000 -0.999900
vn 0.445800 0.000000 0.895100
vn 0.445800 0.000000 -0.895100
vn 0.272900 -0.962000 0.000000
vn 0.272900 0.962000 -0.000000
vn 0.000000 -1.000000 -0.000000
vn 0.868100 0.000000 0.496500
vn 0.010600 0.000000 -0.999900
vn 0.000000 0.024800 -0.999700
vn 0.000000 -0.024800 -0.999700
vn -0.868100 0.000000 0.496500
vn 0.000000 -0.971300 0.237700
vn 0.000000 0.971300 0.237700
s off
f 4/1/1 16/2/1 15/3/1
f 7/4/2 11/5/2 12/6/2
f 1/7/3 5/8/3 6/9/3
f 2/10/4 6/11/4 7/12/4
f 7/13/1 8/14/1 4/15/1
f 1/16/5 4/17/5 8/18/5
f 12/19/6 11/20/6 10/21/6
f 6/22/7 10/23/7 11/24/7
f 8/25/8 12/26/8 9/27/8
f 6/28/9 5/29/9 9/30/9
f 24/31/10 28/32/10 26/33/10
f 2/34/4 3/35/4 15/36/4
f 13/37/11 19/38/11 17/39/11
f 1/40/3 2/41/3 14/42/3
f 17/43/5 19/44/5 20/45/5
f 4/46/12 18/47/12 20/48/12
f 16/49/13 20/50/13 19/51/13
f 4/52/14 1/53/14 17/54/14
f 22/55/15 23/56/15 24/57/15
f 15/36/4 23/58/4 22/59/4
f 13/60/5 21/61/5 24/62/5
f 13/60/16 29/60/16 31/61/16
f 26/33/1 28/32/1 27/63/1
f 15/36/17 25/64/17 27/65/17
f 23/66/18 27/67/18 28/68/18
f 15/45/19 16/69/19 26/70/19
f 30/71/3 32/72/3 31/73/3
f 22/59/20 32/59/20 30/74/20
f 21/75/21 31/75/21 32/55/21
f 14/42/22 30/42/22 29/76/22
f 3/77/1 4/1/1 15/3/1
f 8/78/2 7/4/2 12/6/2
f 2/79/3 1/7/3 6/9/3
f 3/80/4 2/10/4 7/12/4
f 3/81/1 7/13/1 4/15/1
f 5/82/5 1/16/5 8/18/5
f 9/83/6 12/19/6 10/21/6
f 7/84/7 6/22/7 11/24/7
f 5/85/8 8/25/8 9/27/8
f 10/86/9 6/28/9 9/30/9
f 16/87/10 24/31/10 26/33/10
f 14/74/4 2/34/4 15/36/4
f 1/88/11 13/37/11 17/39/11
f 13/76/3 1/40/3 14/42/3
f 18/89/5 17/43/5 20/45/5
f 16/90/12 4/46/12 20/48/12
f 13/91/13 16/49/13 19/51/13
f 18/92/14 4/52/14 17/54/14
f 21/75/15 22/55/15 24/57/15
f 14/74/4 15/36/4 22/59/4
f 16/93/5 13/60/5 24/62/5
f 21/61/16 13/60/16 31/61/16
f 25/94/1 26/33/1 27/63/1
f 23/58/17 15/36/17 27/65/17
f 24/95/18 23/66/18 28/68/18
f 25/96/19 15/45/19 26/70/19
f 29/97/3 30/71/3 31/73/3
f 14/74/20 22/59/20 30/74/20
f 22/55/21 21/75/21 32/55/21
f 13/76/22 14/42/22 29/76/22
